<svg xmlns="http://www.w3.org/2000/svg" viewBox="0 0 1440 320"><path fill="#03fcba" fill-opacity="1" d="M0,128L26.7,122.7C53.3,117,107,107,160,122.7C213.3,139,267,181,320,181.3C373.3,181,427,139,480,117.3C533.3,96,587,96,640,112C693.3,128,747,160,800,197.3C853.3,235,907,277,960,277.3C1013.3,277,1067,235,1120,181.3C1173.3,128,1227,64,1280,48C1333.3,32,1387,64,1413,80L1440,96L1440,320L1413.3,320C1386.7,320,1333,320,1280,320C1226.7,320,1173,320,1120,320C1066.7,320,1013,320,960,320C906.7,320,853,320,800,320C746.7,320,693,320,640,320C586.7,320,533,320,480,320C426.7,320,373,320,320,320C266.7,320,213,320,160,320C106.7,320,53,320,27,320L0,320Z"></path></svg>